<?xml version="1.0" encoding="UTF-8"?>
<svg xmlns="http://www.w3.org/2000/svg" viewBox="0 0 50 50" fill="currentColor">
  <g>
    <path class="cls-1" d="m5.37,15.99l-.91,2.26.87.87-.35.86-3.7-3.86.33-.83,5.35-.21-.36.88-1.23.03Zm-.77.01l-2.32.05,1.63,1.64.69-1.7Z"/>
    <path class="cls-1" d="m10.22,9.02c.62.56.55,1.37-.29,2.3l-1.62,1.8-3.63-3.26,1.53-1.7c.78-.87,1.57-1.01,2.14-.49.37.34.48.77.38,1.18.47-.28,1.02-.27,1.49.16Zm-4.4.65l1,.9.86-.95c.42-.47.49-.88.16-1.18-.34-.3-.74-.19-1.16.28l-.86.95Zm3.73-.03c-.36-.33-.77-.2-1.23.31l-.98,1.09,1.05.94.98-1.09c.46-.51.54-.93.18-1.25Z"/>
    <path class="cls-1" d="m11.89,6.27c-.66-1.28-.17-2.74,1.18-3.43s2.82-.27,3.48,1.02c.67,1.29.17,2.74-1.18,3.43-1.34.7-2.82.26-3.48-1.02Zm3.85-2c-.46-.88-1.44-1.18-2.31-.73-.87.45-1.19,1.43-.73,2.31.46.88,1.44,1.18,2.31.73.87-.45,1.19-1.43.73-2.31Z"/>
    <path class="cls-1" d="m19.97,3.22l-.31-2.74.9-.1.31,2.7c.11,1,.61,1.38,1.39,1.29.78-.09,1.18-.57,1.06-1.57l-.31-2.7.89-.1.31,2.74c.16,1.41-.55,2.27-1.87,2.42-1.33.15-2.21-.53-2.37-1.94Z"/>
    <path class="cls-1" d="m29.18,1.28l-1.58-.33.16-.75,4.05.84-.16.75-1.58-.33-.84,4.02-.89-.18.84-4.02Z"/>
  </g>
  <g>
    <path class="cls-1" d="m41.95,12.75l-1.52-1.9-1.18.33-.58-.73,5.18-1.33.56.7-2.43,4.77-.59-.74.58-1.09Zm.37-.68l1.09-2.05-2.23.62,1.15,1.43Z"/>
    <path class="cls-1" d="m45.66,20.37c-.79.27-1.46-.19-1.87-1.38l-.78-2.29,4.61-1.58.74,2.16c.38,1.11.11,1.86-.62,2.11-.47.16-.9.04-1.22-.25.01.55-.26,1.02-.86,1.22Zm-.21-.89c.46-.16.55-.58.32-1.22l-.47-1.38-1.33.45.47,1.38c.22.65.54.93,1,.77Zm1.79-3.27l-1.27.43.41,1.21c.2.59.53.86.95.71.43-.15.52-.55.32-1.15l-.41-1.21Z"/>
    <path class="cls-1" d="m47.24,23.18c1.44.04,2.47,1.19,2.43,2.7-.05,1.51-1.14,2.59-2.59,2.55-1.45-.04-2.47-1.19-2.43-2.7s1.15-2.59,2.59-2.55Zm-.13,4.34c1,.03,1.74-.68,1.77-1.66.03-.98-.67-1.74-1.66-1.77-1-.03-1.74.68-1.77,1.66s.67,1.74,1.66,1.77Z"/>
    <path class="cls-1" d="m45.94,31.73l2.53,1.07-.35.83-2.5-1.05c-.92-.39-1.5-.14-1.8.59s-.08,1.3.84,1.69l2.5,1.05-.35.82-2.53-1.07c-1.31-.55-1.71-1.59-1.19-2.81.52-1.23,1.54-1.67,2.85-1.12Z"/>
    <path class="cls-1" d="m43.12,40.69l1.06-1.21.58.5-2.73,3.1-.57-.5,1.06-1.21-3.08-2.71.6-.68,3.08,2.71Z"/>
  </g>
  <g>
    <path class="cls-1" d="m26.79,46.25l2.41-.39.3-1.19.92-.15-1.39,5.17-.88.14-2.95-4.47.94-.15.66,1.04Zm.41.66l1.25,1.96.56-2.25-1.81.29Z"/>
    <path class="cls-1" d="m18.32,45.71c.16-.82.89-1.18,2.12-.94l2.38.45-.91,4.79-2.24-.42c-1.15-.22-1.67-.82-1.53-1.58.09-.49.41-.81.81-.94-.48-.26-.75-.73-.64-1.35Zm2.84,3.43l.25-1.32-1.26-.24c-.62-.12-1.01.04-1.09.47-.08.44.22.73.84.85l1.26.24Zm-1.96-3.17c-.09.48.23.76.9.89l1.44.27.26-1.38-1.44-.27c-.67-.13-1.07.02-1.16.49Z"/>
    <path class="cls-1" d="m15.09,45.7c-.75,1.23-2.26,1.56-3.55.77-1.29-.79-1.69-2.27-.93-3.51.76-1.24,2.26-1.56,3.55-.77,1.29.79,1.69,2.28.93,3.51Zm-3.71-2.26c-.52.85-.27,1.84.57,2.36.84.51,1.84.28,2.36-.57.52-.85.27-1.84-.57-2.36-.84-.51-1.84-.28-2.36.57Z"/>
    <path class="cls-1" d="m8.32,40.37l-2.17,1.69-.56-.72,2.15-1.67c.79-.61.86-1.24.37-1.86s-1.1-.71-1.89-.09l-2.15,1.67-.55-.7,2.17-1.69c1.12-.87,2.22-.71,3.04.34.82,1.06.7,2.16-.42,3.03Z"/>
    <path class="cls-1" d="m1.89,33.48l.53,1.52-.72.25-1.36-3.9.72-.25.53,1.52,3.87-1.35.3.85-3.87,1.35Z"/>
  </g>
  <circle class="cls-1" cx="1.92" cy="25.08" r="1.04"/>
  <circle class="cls-1" cx="35.95" cy="5.43" r="1.04"/>
  <circle class="cls-1" cx="35.96" cy="44.74" r="1.04"/>
</svg>