<?xml version="1.0" encoding="UTF-8"?>
<svg xmlns="http://www.w3.org/2000/svg" viewBox="0 0 50 50" fill="currentColor">
  <g>
    <path d="m12.24,12.25l-3.96-2.9,1.83,4.36-.36.49-4.66-.41,3.9,2.87-.78,1.06-5.96-4.38.67-.91,5.69.54-2.24-5.23.67-.91,5.97,4.37-.77,1.05Z"/>
    <path d="m14.97,6.2l-1.38-3.95,1.3-.45,1.36,3.9c.5,1.44,1.37,1.83,2.5,1.44,1.13-.4,1.55-1.24,1.05-2.68l-1.36-3.9,1.28-.45,1.38,3.95c.71,2.04-.05,3.55-1.96,4.22-1.92.67-3.46-.04-4.17-2.07Z"/>
    <path d="m25.38,6.16l.66-.97c.5.57,1.37,1.07,2.26,1.23,1.14.2,1.69-.12,1.79-.66.28-1.57-4.24-1.32-3.75-4.03.21-1.18,1.33-2.01,3.33-1.65.88.16,1.75.55,2.31,1.08l-.62.98c-.59-.5-1.27-.82-1.91-.93-1.13-.2-1.66.15-1.76.71-.28,1.55,4.23,1.32,3.75,3.99-.21,1.17-1.34,2-3.34,1.64-1.14-.2-2.21-.76-2.72-1.39Z"/>
    <path d="m37.96,3.34l1.16.74-3.98,6.24-1.16-.74,3.98-6.24Z"/>
    <path d="m42.23,13.11l-1.66-.3-1.57,1.05-.76-1.14,6.15-4.12.76,1.14-3.15,2.11,5.19.93.86,1.28-4.48-.74-1.57,5.02-.89-1.34,1.12-3.9Z"/>
  </g>
  <g>
    <path d="m37.76,37.75l3.96,2.9-1.83-4.36.36-.49,4.66.41-3.9-2.87.78-1.06,5.96,4.38-.67.91-5.69-.54,2.24,5.23-.67.91-5.97-4.37.77-1.05Z"/>
    <path d="m35.03,43.8l1.38,3.95-1.3.45-1.36-3.9c-.5-1.44-1.37-1.83-2.5-1.44-1.13.4-1.55,1.24-1.05,2.68l1.36,3.9-1.28.45-1.38-3.95c-.71-2.04.05-3.55,1.96-4.22,1.92-.67,3.46.03,4.17,2.07Z"/>
    <path d="m24.62,43.84l-.66.97c-.5-.57-1.37-1.07-2.26-1.23-1.14-.2-1.69.12-1.79.66-.28,1.57,4.24,1.32,3.75,4.03-.21,1.18-1.33,2.01-3.33,1.65-.88-.16-1.75-.55-2.31-1.08l.62-.98c.59.5,1.27.82,1.91.93,1.13.2,1.66-.15,1.76-.71.28-1.55-4.23-1.32-3.75-3.99.21-1.17,1.34-2,3.34-1.64,1.14.2,2.21.76,2.72,1.39Z"/>
    <path d="m12.04,46.66l-1.16-.74,3.98-6.24,1.16.74-3.98,6.24Z"/>
    <path d="m7.77,36.89l1.66.3,1.57-1.05.76,1.14-6.15,4.12-.76-1.14,3.15-2.11-5.19-.93-.86-1.28,4.48.74,1.57-5.02.89,1.34-1.12,3.9Z"/>
  </g>
  <circle cx="3.32" cy="25" r="1.18"/>
  <circle cx="46.68" cy="24.56" r="1.18"/>
</svg>