<?xml version="1.0" encoding="UTF-8"?>
<svg id="Layer_1" data-name="Layer 1" xmlns="http://www.w3.org/2000/svg" viewBox="0 0 50 50">
  <defs>
    <style>
      .cls-1 {
        fill: #231f20;
      }
    </style>
  </defs>
  <g>
    <path class="cls-1" d="m1.9,24.91c1.24-.07,2.06.81,2.14,2.29l.07,1.27,1.63-.09.06,1.05-5.64.3-.12-2.32c-.08-1.48.63-2.44,1.88-2.51Zm.06,1.06c-.71.04-1.09.53-1.05,1.45l.07,1.23,2.24-.12-.07-1.23c-.05-.92-.49-1.37-1.19-1.33Z"/>
    <path class="cls-1" d="m7.16,18.25l-1.93.57c-.02.07-.04.14-.06.21l-.4,1.21,1.56.52-.33.99-5.35-1.78.73-2.2c.47-1.41,1.48-2.04,2.66-1.65.81.27,1.27.88,1.31,1.7l2.17-.65-.36,1.07Zm-4.96-.15l-.39,1.16,2.13.71.39-1.16c.29-.87.04-1.46-.63-1.68-.67-.22-1.21.1-1.5.97Z"/>
    <path class="cls-1" d="m6.63,13.02c-1.25-1.1-1.33-2.89-.17-4.2,1.16-1.31,2.93-1.47,4.19-.36,1.26,1.11,1.33,2.89.17,4.2-1.16,1.31-2.94,1.46-4.19.36Zm3.32-3.77c-.86-.76-2.05-.68-2.8.18-.75.85-.69,2.04.18,2.8.87.76,2.05.68,2.8-.18.75-.85.69-2.04-.18-2.8Z"/>
    <path class="cls-1" d="m14.16,8.48l.19-.92c.47.23.9.25,1.29.04.51-.27.61-.72.28-1.33l-1.38-2.58-1.77.95-.42-.78,2.7-1.45,1.77,3.3c.63,1.17.35,2.06-.74,2.65-.63.34-1.33.39-1.92.11Z"/>
    <path class="cls-1" d="m25,4.69l.14.87-4.18.67-.89-5.57,4.07-.65.14.87-3.03.48.23,1.45,2.69-.43.14.85-2.69.43.25,1.54,3.14-.5Z"/>
    <path class="cls-1" d="m28.45,2.81c.35-1.65,1.86-2.58,3.56-2.22.9.19,1.61.68,1.99,1.38l-.79.48c-.31-.52-.76-.84-1.34-.96-1.14-.24-2.14.39-2.38,1.53-.24,1.14.42,2.12,1.56,2.36.58.12,1.12.01,1.61-.35l.53.77c-.64.49-1.48.65-2.39.46-1.69-.36-2.7-1.81-2.35-3.46Z"/>
    <path class="cls-1" d="m39.17,4.52l-1.58-1,.47-.75,4.04,2.56-.47.75-1.58-1-2.54,4.02-.89-.56,2.54-4.02Z"/>
    <path class="cls-1" d="m41.22,11.25l.86-.22c0,.58.24,1.3.68,1.84.55.69,1.02.78,1.35.52.95-.76-1.76-2.88-.13-4.19.71-.57,1.77-.48,2.73.73.42.53.73,1.19.78,1.78l-.84.25c-.08-.58-.32-1.11-.62-1.49-.54-.68-1.03-.75-1.36-.48-.94.75,1.76,2.87.14,4.17-.71.56-1.77.47-2.73-.74-.55-.69-.88-1.54-.86-2.16Z"/>
  </g>
  <path class="cls-1" d="m26.16,50c-9.55,0-18.58-5.77-22.25-15.19l.94-.36c4.57,11.73,17.83,17.56,29.57,12.99,5.68-2.21,10.16-6.51,12.62-12.09,2.45-5.58,2.59-11.79.37-17.47l.94-.37c2.31,5.93,2.17,12.41-.39,18.25s-7.24,10.31-13.18,12.63c-2.83,1.1-5.75,1.63-8.63,1.63Z"/>
</svg>