<?xml version="1.0" encoding="UTF-8"?>
<svg xmlns="http://www.w3.org/2000/svg" viewBox="0 0 50 50" fill="currentColor">
  <g>
    <path d="m3.88,16.94c-1.31-.65-1.75-2.13-1.07-3.47.36-.71.92-1.2,1.6-1.36l.23.77c-.5.15-.87.46-1.1.91-.45.91-.15,1.88.75,2.33.9.45,1.87.12,2.32-.79.23-.46.26-.93.07-1.43l.76-.27c.27.64.22,1.38-.14,2.1-.67,1.34-2.12,1.86-3.42,1.21Z"/>
    <path d="m8.15,9.87c-.96-1.09-.83-2.63.31-3.63,1.14-1,2.68-.95,3.64.14.96,1.09.83,2.63-.31,3.63s-2.68.94-3.64-.14Zm3.27-2.88c-.66-.75-1.69-.8-2.43-.15-.74.65-.81,1.68-.15,2.43.66.75,1.69.8,2.43.15.74-.65.81-1.68.15-2.43Z"/>
    <path d="m19.28.63l1.52,4.64-.71.23-3.59-2.3,1.03,3.14-.85.28-1.52-4.64.71-.23,3.59,2.3-1.03-3.14.85-.28Z"/>
    <path d="m25.71.85l-1.62-.08L24.13,0l4.14.2-.04.77-1.62-.08-.2,4.11-.91-.04.2-4.11Z"/>
    <path d="m34.18,5.88l-2.26-.93-.88.86-.87-.36,3.9-3.68.83.34.18,5.36-.88-.36-.02-1.23Zm0-.77l-.04-2.33-1.66,1.63,1.7.7Z"/>
    <path d="m38.95,7.22c1.01-1.06,2.55-1.04,3.64,0,.58.55.87,1.23.83,1.93h-.81c0-.53-.18-.97-.55-1.33-.73-.7-1.76-.69-2.45.03-.7.73-.66,1.75.07,2.45.37.35.82.52,1.35.49l.04.81c-.7.07-1.39-.2-1.97-.75-1.08-1.04-1.16-2.57-.15-3.63Z"/>
    <path d="m46.49,13.92l-.72-1.45.69-.34,1.84,3.72-.69.34-.72-1.45-3.7,1.82-.4-.82,3.7-1.82Z"/>
  </g>
  <g>
    <path d="m46.12,33.06c1.3.65,1.75,2.13,1.07,3.47-.36.71-.92,1.2-1.6,1.36l-.23-.77c.5-.15.87-.45,1.1-.91.46-.9.15-1.88-.75-2.33-.9-.45-1.87-.11-2.32.79-.23.46-.26.93-.07,1.43l-.76.27c-.27-.64-.22-1.38.14-2.1.67-1.34,2.11-1.86,3.42-1.21Z"/>
    <path d="m41.85,40.13c.96,1.09.83,2.63-.31,3.63-1.14,1-2.68.95-3.64-.14-.96-1.09-.83-2.63.31-3.63s2.68-.94,3.64.14Zm-3.27,2.88c.66.75,1.69.8,2.43.15s.81-1.68.15-2.43c-.66-.75-1.69-.8-2.43-.15-.74.65-.81,1.68-.15,2.43Z"/>
    <path d="m30.72,49.36l-1.52-4.64.71-.23,3.59,2.3-1.03-3.14.85-.28,1.52,4.64-.71.23-3.59-2.3,1.03,3.14-.85.28Z"/>
    <path d="m24.29,49.15l1.62.08-.04.77-4.14-.2.04-.77,1.62.08.2-4.11.91.05-.2,4.11Z"/>
    <path d="m15.82,44.12l2.26.93.88-.86.87.36-3.9,3.68-.83-.34-.18-5.37.88.36.02,1.23Zm0,.77l.04,2.33,1.66-1.63-1.7-.7Z"/>
    <path d="m11.05,42.78c-1.01,1.06-2.55,1.05-3.64,0-.58-.55-.87-1.23-.83-1.93h.81c0,.53.18.97.55,1.33.73.7,1.76.69,2.45-.03.7-.73.66-1.75-.07-2.45-.37-.35-.82-.52-1.35-.49l-.04-.81c.7-.07,1.39.2,1.97.75,1.08,1.04,1.16,2.57.15,3.63Z"/>
    <path d="m3.51,36.08l.72,1.45-.69.34-1.84-3.72.69-.34.72,1.45,3.7-1.83.4.82-3.7,1.82Z"/>
  </g>
  <circle cx="2.72" cy="25" r="1.02"/>
  <circle cx="47.28" cy="25" r="1.02"/>
</svg>