<?xml version="1.0" encoding="UTF-8"?>
<svg id="Layer_1" data-name="Layer 1" xmlns="http://www.w3.org/2000/svg" viewBox="0 0 50 50">
  <defs>
    <style>
      .cls-1 {
        fill: #231f20;
      }
    </style>
  </defs>
  <g>
    <path class="cls-1" d="m12.53,5.77c-.67-1.6.07-3.26,1.71-3.95.87-.36,1.75-.36,2.49,0l-.39.87c-.57-.26-1.13-.26-1.69-.03-1.11.46-1.58,1.58-1.12,2.68.46,1.1,1.59,1.54,2.69,1.08.56-.23.95-.64,1.16-1.23l.9.34c-.25.79-.87,1.41-1.75,1.78-1.63.68-3.34.04-4-1.55Z"/>
    <path class="cls-1" d="m21.54,2.88C21.59,1.17,22.95-.05,24.74,0c1.79.06,3.08,1.35,3.02,3.07-.05,1.72-1.41,2.93-3.21,2.88-1.79-.06-3.08-1.36-3.02-3.07Zm5.15.16c.04-1.18-.8-2.06-1.97-2.1s-2.06.79-2.1,1.97c-.04,1.18.81,2.06,1.97,2.1,1.17.04,2.06-.79,2.09-1.97Z"/>
    <path class="cls-1" d="m38.25,4.21l-2.68,5.14-.78-.41-1.02-4.96-1.81,3.48-.95-.49,2.68-5.14.79.41,1.02,4.96,1.81-3.48.95.49Z"/>
    <path class="cls-1" d="m43.03,9.76l-1.22-1.48.7-.58,3.12,3.8-.7.58-1.22-1.48-3.77,3.1-.68-.83,3.77-3.1Z"/>
    <path class="cls-1" d="m44.95,20.9l-.88-2.75-1.45-.13-.34-1.05,6.3.71.32,1.01-4.71,4.25-.34-1.07,1.1-.96Zm.69-.6l2.07-1.81-2.74-.26.66,2.07Z"/>
    <path class="cls-1" d="m47.25,25.87c1.72.17,2.83,1.61,2.65,3.38-.09.94-.51,1.71-1.19,2.18l-.58-.75c.49-.37.77-.87.83-1.47.12-1.19-.63-2.14-1.82-2.26-1.18-.12-2.11.66-2.23,1.85-.06.6.11,1.14.53,1.61l-.73.62c-.57-.6-.83-1.44-.73-2.38.18-1.76,1.55-2.95,3.27-2.78Z"/>
    <path class="cls-1" d="m46.45,37.44l.9-1.7.8.43-2.3,4.35-.8-.43.9-1.7-4.32-2.28.5-.95,4.32,2.28Z"/>
  </g>
  <path class="cls-1" d="m23.92,50c-.17,0-.34,0-.5,0-6.36-.13-12.3-2.73-16.7-7.32S-.05,32.04.08,25.68c.13-6.36,2.73-12.3,7.32-16.7l.72.75C3.73,13.94,1.24,19.61,1.12,25.7c-.13,6.09,2.13,11.86,6.34,16.25,4.22,4.39,9.89,6.88,15.98,7.01,6.07.16,11.86-2.13,16.25-6.34l.72.75c-4.47,4.29-10.31,6.64-16.49,6.64Z"/>
</svg>