<?xml version="1.0" encoding="UTF-8"?>
<svg xmlns="http://www.w3.org/2000/svg" viewBox="0 0 50 50" fill="currentColor">
  <g>
    <path d="m14.88,5.27l-.49,1.22.57,1.37-.99.41-2.22-5.34.99-.41,1.14,2.74,1.5-3.84,1.11-.46-1.25,3.32,3.61,1.96-1.16.48-2.81-1.45Z"/>
    <path d="m21.38,2.9c.05-1.71,1.4-2.94,3.2-2.89s3.08,1.34,3.03,3.06c-.05,1.72-1.41,2.94-3.2,2.89-1.79-.05-3.08-1.35-3.03-3.06Zm5.15.14c.03-1.18-.81-2.06-1.98-2.09-1.16-.03-2.06.79-2.09,1.98-.03,1.18.81,2.06,1.98,2.09,1.16.03,2.06-.79,2.09-1.98Z"/>
    <path d="m38.09,4.18l-2.66,5.14-.78-.41-1.03-4.95-1.8,3.48-.95-.49,2.66-5.14.79.41,1.03,4.95,1.8-3.48.95.49Z"/>
    <path d="m42.89,9.71l-1.22-1.48.7-.58,3.13,3.78-.7.58-1.22-1.48-3.76,3.11-.68-.83,3.76-3.11Z"/>
    <path d="m44.85,20.85l-.89-2.75-1.45-.13-.34-1.05,6.3.7.33,1.01-4.7,4.26-.35-1.07,1.1-.96Zm.69-.6l2.07-1.82-2.74-.25.67,2.07Z"/>
    <path d="m46.45,28.25l-.84-1.01-1.47-.15.11-1.07,5.75.59-.11,1.07-2.95-.3,2.66,3.15-.12,1.2-2.32-2.68-3.44,2.24.13-1.25,2.62-1.78Z"/>
    <path d="m46.5,37.12l.87-1.71.81.41-2.23,4.37-.81-.41.87-1.71-4.34-2.22.49-.96,4.34,2.22Z"/>
  </g>
  <path d="m23.84,49.99c-.17,0-.34,0-.5,0-6.36-.13-12.29-2.73-16.7-7.32S-.13,32.04,0,25.68c.13-6.36,2.73-12.29,7.32-16.7l.72.75C3.65,13.94,1.16,19.61,1.04,25.7c-.13,6.09,2.13,11.86,6.34,16.25,4.22,4.39,9.89,6.88,15.97,7.01,6.07.16,11.86-2.13,16.25-6.34l.72.75c-4.47,4.29-10.31,6.64-16.48,6.64Z"/>
</svg>