<?xml version="1.0" encoding="UTF-8"?>
<svg xmlns="http://www.w3.org/2000/svg" viewBox="0 0 50 50" fill="currentColor">
  <g>
    <path d="m1.9,24.91c1.24-.07,2.06.81,2.14,2.29l.07,1.27,1.63-.09.06,1.05-5.64.3-.12-2.32c-.08-1.48.63-2.44,1.88-2.51Zm.06,1.06c-.71.04-1.09.53-1.05,1.45l.07,1.23,2.24-.12-.07-1.23c-.05-.92-.49-1.37-1.19-1.33Z"/>
    <path d="m7.16,18.25l-1.93.57c-.02.07-.04.14-.06.21l-.4,1.21,1.56.52-.33.99-5.35-1.78.73-2.2c.47-1.41,1.48-2.04,2.66-1.65.81.27,1.27.88,1.31,1.7l2.17-.65-.36,1.07Zm-4.96-.15l-.39,1.16,2.13.71.39-1.16c.29-.87.04-1.46-.63-1.68-.67-.22-1.21.1-1.5.97Z"/>
    <path d="m6.63,13.02c-1.25-1.1-1.33-2.89-.17-4.2,1.16-1.31,2.93-1.47,4.19-.36,1.26,1.11,1.33,2.89.17,4.2-1.16,1.31-2.94,1.46-4.19.36Zm3.32-3.77c-.86-.76-2.05-.68-2.8.18-.75.85-.69,2.04.18,2.8.87.76,2.05.68,2.8-.18.75-.85.69-2.04-.18-2.8Z"/>
    <path d="m14.16,8.48l.19-.92c.47.23.9.25,1.29.04.51-.27.61-.72.28-1.33l-1.38-2.58-1.77.95-.42-.78,2.7-1.45,1.77,3.3c.63,1.17.35,2.06-.74,2.65-.63.34-1.33.39-1.92.11Z"/>
    <path d="m25,4.69l.14.87-4.18.67-.89-5.57,4.07-.65.14.87-3.03.48.23,1.45,2.69-.43.14.85-2.69.43.25,1.54,3.14-.5Z"/>
    <path d="m30.68,3.75l-1.07.71-.3,1.41-1.03-.22L29.46.13l1.03.22-.6,2.83,3.34-2.25,1.15.25-2.85,1.98,1.81,3.58-1.2-.26-1.46-2.73Z"/>
    <path d="m38.91,4.36l-1.59-.98.46-.76,4.08,2.51-.46.76-1.59-.98-2.49,4.05-.89-.55,2.49-4.05Z"/>
    <path d="m44.26,14.59l-.69.55-2.65-3.31,4.41-3.53,2.58,3.22-.69.55-1.92-2.4-1.15.92,1.71,2.13-.67.54-1.71-2.13-1.22.97,1.99,2.49Z"/>
  </g>
  <path d="m26.16,50c-9.55,0-18.58-5.77-22.25-15.19l.94-.36c4.57,11.73,17.83,17.56,29.57,12.99,5.68-2.21,10.16-6.51,12.62-12.09,2.45-5.58,2.59-11.79.37-17.47l.94-.37c2.31,5.93,2.17,12.41-.39,18.25-2.56,5.83-7.24,10.31-13.18,12.63-2.83,1.1-5.75,1.63-8.63,1.63Z"/>
</svg>