<?xml version="1.0" encoding="UTF-8"?>
<svg xmlns="http://www.w3.org/2000/svg" viewBox="0 0 50 50" fill="currentColor">
  <g>
    <path d="m4.5,13.47c.92.41,1.18,1.35.68,2.44l-.42.94,1.2.54-.35.77-4.17-1.88.77-1.72c.49-1.1,1.36-1.52,2.28-1.11Zm-.35.78c-.52-.24-.99-.02-1.29.66l-.41.91,1.66.75.41-.91c.31-.68.16-1.17-.36-1.4Z"/>
    <path d="m11.03,9.97l-1.61-.25s-.08.09-.12.13l-.71.75.96.92-.59.61-3.31-3.15,1.3-1.36c.83-.87,1.79-.98,2.52-.29.5.48.63,1.08.37,1.7l1.81.28-.63.66Zm-3.58-1.83l-.68.72,1.32,1.26.68-.72c.51-.54.53-1.05.12-1.45-.42-.4-.92-.35-1.43.19Z"/>
    <path d="m12.91,5.55c-.59-1.22-.08-2.57,1.2-3.18,1.28-.61,2.65-.17,3.23,1.05.59,1.22.08,2.57-1.2,3.18-1.27.61-2.65.17-3.23-1.05Zm3.66-1.76c-.4-.84-1.31-1.15-2.14-.75-.83.4-1.15,1.3-.75,2.14.4.84,1.31,1.15,2.14.75.83-.4,1.15-1.3.75-2.14Z"/>
    <path d="m20.62,4.3l.41-.63c.29.31.61.45.96.41.47-.06.67-.37.6-.92l-.29-2.34-1.61.2-.09-.71,2.45-.3.37,3c.13,1.07-.34,1.66-1.33,1.78-.57.07-1.12-.1-1.48-.48Z"/>
    <path d="m30.6,4.47l-.13.7-3.37-.61L27.92.08l3.28.59-.13.7-2.44-.44-.21,1.17,2.17.39-.12.69-2.17-.39-.22,1.24,2.53.46Z"/>
    <path d="m34.34,4.12c.67-1.19,2.07-1.54,3.29-.85.65.37,1.08.91,1.2,1.56l-.73.18c-.11-.48-.39-.83-.8-1.07-.83-.47-1.75-.22-2.21.6-.46.82-.19,1.74.64,2.2.42.23.86.28,1.33.13l.22.72c-.61.23-1.3.14-1.96-.23-1.22-.69-1.65-2.06-.98-3.25Z"/>
    <path d="m42.7,8.29l-1.02-1.12.53-.48,2.61,2.86-.53.48-1.02-1.12-2.84,2.6-.57-.63,2.84-2.6Z"/>
    <path d="m43.26,14.54h.72c-.11.44-.06,1.06.18,1.57.3.65.66.81.97.67.89-.41-.84-2.6.7-3.32.67-.31,1.48-.04,2.01,1.09.23.5.34,1.08.27,1.55l-.71.04c.05-.47-.04-.93-.21-1.29-.3-.64-.67-.78-.98-.64-.88.41.83,2.6-.69,3.3-.66.31-1.48.03-2.01-1.1-.3-.65-.4-1.38-.26-1.86Z"/>
  </g>
  <g>
    <path d="m45.51,36.53c-.92-.41-1.18-1.35-.68-2.44l.42-.94-1.2-.54.35-.77,4.17,1.88-.77,1.71c-.49,1.1-1.36,1.52-2.28,1.11Zm.35-.78c.52.24.99.02,1.29-.66l.41-.91-1.66-.75-.41.91c-.31.68-.16,1.17.36,1.4Z"/>
    <path d="m38.97,40.03l1.61.25s.08-.09.12-.13l.71-.75-.96-.92.58-.61,3.31,3.15-1.3,1.36c-.83.87-1.78.98-2.52.29-.5-.48-.63-1.08-.37-1.7l-1.81-.28.63-.66Zm3.58,1.83l.68-.72-1.32-1.26-.68.72c-.51.54-.53,1.05-.12,1.45.42.4.92.35,1.44-.19Z"/>
    <path d="m37.09,44.45c.59,1.22.08,2.57-1.2,3.18-1.28.61-2.65.17-3.23-1.05s-.08-2.57,1.2-3.18,2.65-.17,3.23,1.05Zm-3.66,1.76c.41.84,1.31,1.15,2.14.75.83-.4,1.16-1.3.75-2.14-.4-.84-1.31-1.15-2.14-.75-.83.4-1.15,1.3-.75,2.14Z"/>
    <path d="m29.38,45.7l-.41.63c-.29-.31-.61-.45-.96-.41-.47.06-.67.36-.6.92l.29,2.34,1.61-.2.09.71-2.45.3-.37-3c-.13-1.07.34-1.66,1.33-1.78.57-.07,1.12.1,1.48.48Z"/>
    <path d="m19.4,45.53l.13-.7,3.37.61-.81,4.49-3.28-.59.13-.7,2.44.44.21-1.17-2.17-.39.12-.69,2.17.39.22-1.24-2.53-.46Z"/>
    <path d="m15.66,45.88c-.67,1.19-2.07,1.54-3.29.85-.65-.36-1.08-.91-1.2-1.56l.73-.18c.11.48.39.83.8,1.07.83.46,1.75.22,2.21-.6.46-.82.19-1.74-.64-2.2-.42-.23-.86-.28-1.33-.13l-.22-.73c.61-.23,1.3-.14,1.96.23,1.22.69,1.65,2.06.98,3.25Z"/>
    <path d="m7.3,41.71l1.02,1.12-.53.48-2.61-2.86.53-.48,1.02,1.12,2.84-2.6.57.63-2.84,2.6Z"/>
    <path d="m6.74,35.46h-.72c.11-.44.06-1.06-.18-1.57-.3-.65-.66-.81-.97-.67-.89.42.84,2.6-.7,3.32-.67.31-1.48.04-2.01-1.09-.23-.5-.34-1.08-.27-1.55l.71-.03c-.05.47.04.93.21,1.29.3.64.67.78.98.64.88-.41-.83-2.6.69-3.3.66-.31,1.48-.03,2.01,1.1.3.65.4,1.38.26,1.86Z"/>
  </g>
  <circle cx="2.05" cy="25" r=".97"/>
  <circle cx="47.95" cy="25" r=".97"/>
</svg>