<?xml version="1.0" encoding="UTF-8"?>
<svg xmlns="http://www.w3.org/2000/svg" viewBox="0 0 50 50" fill="currentColor">
  <g>
    <path d="m12.24,12.25l-3.96-2.9,1.83,4.36-.36.49-4.66-.41,3.9,2.87-.78,1.06-5.96-4.38.67-.91,5.69.54-2.24-5.23.67-.91,5.97,4.37-.77,1.05Z"/>
    <path d="m14.97,6.2l-1.38-3.95,1.3-.45,1.36,3.9c.5,1.44,1.37,1.83,2.5,1.44,1.13-.4,1.55-1.24,1.05-2.68l-1.36-3.9,1.28-.45,1.38,3.95c.71,2.04-.05,3.55-1.96,4.22-1.92.67-3.46-.04-4.17-2.07Z"/>
    <path d="m25.38,6.16l.66-.97c.5.57,1.37,1.07,2.26,1.23,1.14.2,1.69-.12,1.79-.66.28-1.57-4.24-1.32-3.75-4.03.21-1.18,1.33-2.01,3.33-1.65.88.16,1.75.55,2.31,1.08l-.62.98c-.59-.5-1.27-.82-1.91-.93-1.13-.2-1.66.15-1.76.71-.28,1.55,4.23,1.32,3.75,3.99-.21,1.17-1.34,2-3.34,1.64-1.14-.2-2.21-.76-2.72-1.39Z"/>
    <path d="m37.96,3.34l1.16.74-3.98,6.24-1.16-.74,3.98-6.24Z"/>
    <path d="m41.01,10.2c1.84-1.23,4.11-.72,5.38,1.17.67,1,.89,2.11.61,3.13l-1.19-.27c.18-.77.05-1.49-.38-2.13-.86-1.27-2.37-1.6-3.64-.75-1.27.85-1.54,2.37-.69,3.65.43.64,1.04,1.04,1.83,1.15l-.21,1.21c-1.05-.12-1.99-.74-2.67-1.75-1.26-1.88-.88-4.18.96-5.41Z"/>
  </g>
  <g>
    <path d="m37.76,37.75l3.96,2.9-1.83-4.36.36-.49,4.66.41-3.9-2.87.78-1.06,5.96,4.38-.67.91-5.69-.54,2.24,5.23-.67.91-5.97-4.37.77-1.05Z"/>
    <path d="m35.03,43.8l1.38,3.95-1.3.45-1.36-3.9c-.5-1.44-1.37-1.83-2.5-1.44-1.13.4-1.55,1.24-1.05,2.68l1.36,3.9-1.28.45-1.38-3.95c-.71-2.04.05-3.55,1.96-4.22,1.92-.67,3.46.03,4.17,2.07Z"/>
    <path d="m24.62,43.84l-.66.97c-.5-.57-1.37-1.07-2.26-1.23-1.14-.2-1.69.12-1.79.66-.28,1.57,4.24,1.32,3.75,4.03-.21,1.18-1.33,2.01-3.33,1.65-.88-.16-1.75-.55-2.31-1.08l.62-.98c.59.5,1.27.82,1.91.93,1.13.2,1.66-.15,1.76-.71.28-1.55-4.23-1.32-3.75-3.99.21-1.17,1.34-2,3.34-1.64,1.14.2,2.21.76,2.72,1.39Z"/>
    <path d="m12.04,46.66l-1.16-.74,3.98-6.24,1.16.74-3.98,6.24Z"/>
    <path d="m8.99,39.8c-1.84,1.23-4.11.72-5.38-1.17-.67-1-.89-2.11-.61-3.13l1.19.27c-.18.77-.05,1.49.38,2.13.86,1.27,2.37,1.59,3.64.75,1.27-.85,1.54-2.38.69-3.65-.43-.64-1.04-1.04-1.83-1.15l.21-1.21c1.05.12,1.99.74,2.67,1.75,1.26,1.88.88,4.18-.96,5.41Z"/>
  </g>
  <circle cx="3.32" cy="25" r="1.18"/>
  <circle cx="46.68" cy="24.56" r="1.18"/>
</svg>