<?xml version="1.0" encoding="UTF-8"?>
<svg xmlns="http://www.w3.org/2000/svg" viewBox="0 0 50 50" fill="currentColor">
  <g>
    <path d="m15.25,9.05l-2.69-4.02.22,4.67-.5.34-4.18-1.95,2.65,3.98-1.08.72-4.05-6.08.93-.62,5.1,2.42-.31-5.61.93-.62,4.06,6.08-1.07.71Z"/>
    <path d="m20.21,4.23l-.07-4.12,1.36-.02.07,4.07c.03,1.5.72,2.14,1.89,2.12,1.18-.02,1.84-.68,1.81-2.18l-.07-4.07,1.34-.02.07,4.12c.04,2.13-1.14,3.31-3.14,3.34-2,.03-3.22-1.1-3.26-3.23Z"/>
    <path d="m30.51,7.62l.92-.7c.29.69.94,1.43,1.73,1.86,1,.55,1.61.42,1.88-.05.76-1.38-3.54-2.57-2.24-4.94.57-1.03,1.87-1.46,3.63-.49.77.42,1.46,1.07,1.82,1.74l-.88.72c-.39-.66-.93-1.17-1.49-1.47-.99-.54-1.6-.38-1.87.1-.75,1.36,3.53,2.56,2.24,4.91-.56,1.02-1.88,1.45-3.63.48-1-.55-1.82-1.41-2.1-2.16Z"/>
    <path d="m43.54,9.23l.86,1.05-5.66,4.62-.86-1.05,5.66-4.62Z"/>
    <path d="m44.76,20.19l-1.46-.8-1.8.5-.36-1.31,7.04-1.96.36,1.31-3.61,1,4.58,2.47.41,1.47-3.97-2.08-3.02,4.22-.42-1.53,2.25-3.3Z"/>
  </g>
  <path d="m23.55,49.77C10.67,49.77.19,39.29.19,26.4c0-4.59,1.33-9.03,3.85-12.84l.97.64c-2.39,3.62-3.66,7.84-3.66,12.2,0,12.24,9.96,22.2,22.2,22.2s21.34-9.06,22.14-20.63l1.16.08c-.84,12.18-11.07,21.71-23.29,21.71Z"/>
</svg>