<?xml version="1.0" encoding="UTF-8"?>
<svg xmlns="http://www.w3.org/2000/svg" viewBox="0 0 50 50" fill="currentColor">
  <circle cx="2.19" cy="25.58" r=".68"/>
  <circle cx="24.38" cy="2.21" r=".68"/>
  <circle cx="47.77" cy="24.3" r=".68"/>
  <circle cx="25.66" cy="47.79" r=".68"/>
  <g>
    <path d="m1.55,15.38l4.25,3.54-.26.89L.05,20.52l.29-.98,4.22-.53-3.28-2.73.26-.9Z"/>
    <path d="m3.81,11.36l.52-.78,4.21,2.82-.52.78-4.21-2.82Z"/>
    <path d="m9.1,6.48l-1.29,1.07-.51-.61,3.31-2.74.51.61-1.29,1.07,2.72,3.29-.73.6-2.72-3.29Z"/>
    <path d="m19.12,4.48l-2.39.84-.08,1.27-.91.32.47-5.53.87-.31,3.83,4.02-.93.33-.87-.94Zm-.54-.59l-1.63-1.77-.16,2.4,1.8-.63Z"/>
    <path d="m34.43,1.48l-3.51,4.27-.89-.25L29.29.02l.98.28.56,4.22,2.7-3.29.9.26Z"/>
    <path d="m38.49,3.71l.78.52-2.8,4.23-.78-.52,2.8-4.23Z"/>
    <path d="m43.41,8.97l-1.08-1.29.61-.51,2.76,3.29-.61.51-1.08-1.29-3.27,2.74-.6-.72,3.27-2.75Z"/>
    <path d="m45.49,18.99l-.86-2.39-1.27-.07-.33-.91,5.54.44.31.87-4,3.87-.33-.93.94-.87Zm.59-.54l1.76-1.65-2.41-.15.64,1.79Z"/>
    <path d="m48.58,34.28l-4.29-3.47.25-.89,5.47-.78-.27.98-4.21.58,3.31,2.68-.25.91Z"/>
    <path d="m46.37,38.35l-.51.79-4.24-2.76.51-.79,4.25,2.76Z"/>
    <path d="m41.12,43.32l1.28-1.09.52.61-3.28,2.78-.51-.61,1.28-1.09-2.76-3.26.72-.61,2.76,3.26Z"/>
    <path d="m31.13,45.44l2.38-.87.07-1.27.91-.33-.41,5.54-.87.32-3.88-3.98.93-.34.88.93Zm.54.59l1.65,1.75.14-2.4-1.79.65Z"/>
    <path d="m15.85,48.63l3.45-4.31.89.24.81,5.46-.98-.27-.6-4.21-2.66,3.33-.91-.25Z"/>
    <path d="m11.78,46.46l-.79-.51,2.74-4.26.79.51-2.74,4.26Z"/>
    <path d="m6.8,41.27l1.1,1.27-.6.52-2.81-3.26.6-.52,1.1,1.27,3.24-2.79.61.71-3.24,2.79Z"/>
    <path d="m4.59,31.26l.88,2.37,1.27.06.34.91-5.54-.37-.32-.87,3.95-3.9.34.92-.92.88Zm-.58.55l-1.74,1.67,2.4.12-.66-1.78Z"/>
  </g>
</svg>