<?xml version="1.0" encoding="UTF-8"?>
<svg xmlns="http://www.w3.org/2000/svg" viewBox="0 0 50 50" fill="currentColor">
  <g>
    <path d="m5.14,15.3l.36,1.05,1.12.56-.41.81-4.37-2.19.41-.81,2.24,1.13-1.16-3.29.46-.91,1.03,2.82,3.4-.74-.48.95-2.61.63Z"/>
    <path d="m8.11,9.92c-.96-1.08-.83-2.62.3-3.63,1.13-1,2.67-.95,3.64.14.96,1.09.83,2.62-.3,3.63-1.13,1-2.68.95-3.64-.14Zm3.25-2.88c-.66-.75-1.69-.8-2.42-.15-.74.65-.81,1.68-.15,2.42.66.75,1.69.8,2.42.15.74-.65.81-1.68.15-2.42Z"/>
    <path d="m19.21.64l1.54,4.64-.71.24-3.6-2.3,1.04,3.14-.86.28-1.54-4.64.71-.23,3.6,2.3-1.04-3.14.86-.28Z"/>
    <path d="m25.64.84l-1.62-.07.04-.77,4.14.19-.04.77-1.62-.07-.19,4.11-.91-.04.19-4.11Z"/>
    <path d="m34.12,5.85l-2.26-.93-.87.86-.87-.35,3.89-3.69.83.34.19,5.36-.88-.36-.02-1.23Zm0-.77l-.04-2.33-1.66,1.63,1.7.7Z"/>
    <path d="m40.15,8.91l-1.11.04-.87.9-.66-.63,3.39-3.54.66.63-1.74,1.81,3.49-.14.74.71-3,.16-.3,3.47-.77-.74.17-2.68Z"/>
    <path d="m46.35,13.65l-.74-1.44.69-.35,1.89,3.7-.69.35-.74-1.44-3.67,1.87-.41-.81,3.67-1.87Z"/>
  </g>
  <g>
    <path d="m44.86,34.7l-.36-1.05-1.12-.56.41-.81,4.37,2.19-.41.81-2.24-1.13,1.16,3.29-.46.91-1.03-2.82-3.4.74.48-.95,2.61-.63Z"/>
    <path d="m41.89,40.08c.96,1.08.83,2.62-.3,3.63-1.13,1-2.67.95-3.63-.14-.96-1.09-.83-2.62.3-3.63,1.13-1,2.68-.95,3.64.14Zm-3.25,2.88c.66.75,1.69.8,2.42.15.74-.65.81-1.68.15-2.42-.66-.75-1.69-.8-2.42-.15s-.81,1.68-.15,2.42Z"/>
    <path d="m30.79,49.36l-1.54-4.64.71-.23,3.6,2.3-1.04-3.14.85-.28,1.54,4.64-.71.23-3.6-2.3,1.04,3.14-.86.28Z"/>
    <path d="m24.36,49.16l1.62.07-.04.77-4.14-.19.04-.77,1.62.07.19-4.11.91.04-.19,4.11Z"/>
    <path d="m15.88,44.15l2.26.93.87-.87.87.35-3.89,3.69-.83-.34-.19-5.36.88.36.02,1.23Zm0,.77l.04,2.33,1.66-1.63-1.7-.7Z"/>
    <path d="m9.85,41.09l1.11-.04.87-.9.66.63-3.39,3.54-.66-.63,1.74-1.82-3.49.14-.74-.71,3-.16.3-3.47.77.74-.17,2.68Z"/>
    <path d="m3.65,36.35l.74,1.45-.69.35-1.89-3.7.69-.35.74,1.45,3.67-1.87.41.81-3.67,1.87Z"/>
  </g>
  <circle cx="2.37" cy="25" r="1.05"/>
  <circle cx="47.63" cy="25" r="1.05"/>
</svg>