<?xml version="1.0" encoding="UTF-8"?>
<svg xmlns="http://www.w3.org/2000/svg" viewBox="0 0 50 50" fill="currentColor">
  <g>
    <path d="m4.5,13.47c.92.41,1.18,1.35.68,2.44l-.42.94,1.2.54-.35.77-4.17-1.88.77-1.72c.49-1.1,1.36-1.52,2.28-1.11Zm-.35.78c-.52-.24-.99-.02-1.29.66l-.41.91,1.66.75.41-.91c.31-.68.16-1.17-.36-1.4Z"/>
    <path d="m11.03,9.97l-1.61-.25s-.08.09-.12.13l-.71.75.96.92-.59.61-3.31-3.15,1.3-1.36c.83-.87,1.79-.98,2.52-.29.5.48.63,1.08.37,1.7l1.81.28-.63.66Zm-3.58-1.83l-.68.72,1.32,1.26.68-.72c.51-.54.53-1.05.12-1.45-.42-.4-.92-.35-1.43.19Z"/>
    <path d="m12.91,5.55c-.59-1.22-.08-2.57,1.2-3.18,1.28-.61,2.65-.17,3.23,1.05.59,1.22.08,2.57-1.2,3.18-1.27.61-2.65.17-3.23-1.05Zm3.66-1.76c-.4-.84-1.31-1.15-2.14-.75-.83.4-1.15,1.3-.75,2.14.4.84,1.31,1.15,2.14.75.83-.4,1.15-1.3.75-2.14Z"/>
    <path d="m20.62,4.3l.41-.63c.29.31.61.45.96.41.47-.06.67-.37.6-.92l-.29-2.34-1.61.2-.09-.71,2.45-.3.37,3c.13,1.07-.34,1.66-1.33,1.78-.57.07-1.12-.1-1.48-.48Z"/>
    <path d="m30.6,4.47l-.13.7-3.37-.61L27.92.08l3.28.59-.13.7-2.44-.44-.21,1.17,2.17.39-.12.69-2.17-.39-.22,1.24,2.53.46Z"/>
    <path d="m35.81,5.38l-1,.29-.57,1.02-.74-.42,2.25-3.99.74.42-1.15,2.04,3.12-.94.83.47-2.68.84.54,3.21-.87-.49-.47-2.46Z"/>
    <path d="m42.52,8.12l-1.03-1.11.53-.49,2.64,2.84-.53.49-1.03-1.11-2.82,2.62-.58-.62,2.82-2.62Z"/>
    <path d="m45,17.75l-.65.3-1.44-3.11,4.14-1.92,1.4,3.02-.65.3-1.05-2.25-1.08.5.93,2-.63.29-.93-2-1.14.53,1.09,2.34Z"/>
  </g>
  <g>
    <path d="m45.51,36.53c-.92-.41-1.18-1.35-.68-2.44l.42-.94-1.2-.54.35-.77,4.17,1.88-.77,1.71c-.49,1.1-1.36,1.52-2.28,1.11Zm.35-.78c.52.24.99.02,1.29-.66l.41-.91-1.66-.75-.41.91c-.31.68-.16,1.17.36,1.4Z"/>
    <path d="m38.97,40.03l1.61.25s.08-.09.12-.13l.71-.75-.96-.92.58-.61,3.31,3.15-1.3,1.36c-.83.87-1.78.98-2.52.29-.5-.48-.63-1.08-.37-1.7l-1.81-.28.63-.66Zm3.58,1.83l.68-.72-1.32-1.26-.68.72c-.51.54-.53,1.05-.12,1.45.42.4.92.35,1.44-.19Z"/>
    <path d="m37.09,44.45c.59,1.22.08,2.57-1.2,3.18-1.28.61-2.65.17-3.23-1.05s-.08-2.57,1.2-3.18,2.65-.17,3.23,1.05Zm-3.66,1.76c.41.84,1.31,1.15,2.14.75.83-.4,1.16-1.3.75-2.14-.4-.84-1.31-1.15-2.14-.75-.83.4-1.15,1.3-.75,2.14Z"/>
    <path d="m29.38,45.7l-.41.63c-.29-.31-.61-.45-.96-.41-.47.06-.67.36-.6.92l.29,2.34,1.61-.2.09.71-2.45.3-.37-3c-.13-1.07.34-1.66,1.33-1.78.57-.07,1.12.1,1.48.48Z"/>
    <path d="m19.4,45.53l.13-.7,3.37.61-.81,4.49-3.28-.59.13-.7,2.44.44.21-1.17-2.17-.39.12-.69,2.17.39.22-1.24-2.53-.46Z"/>
    <path d="m14.19,44.62l1-.29.57-1.02.74.42-2.25,3.99-.74-.42,1.15-2.04-3.12.94-.83-.47,2.68-.84-.54-3.21.87.49.47,2.46Z"/>
    <path d="m7.45,41.86l1.03,1.11-.53.49-2.64-2.84.53-.49,1.03,1.11,2.82-2.62.58.62-2.82,2.62Z"/>
    <path d="m5,32.25l.65-.3,1.44,3.11-4.14,1.93-1.4-3.02.65-.3,1.05,2.25,1.08-.5-.93-2,.63-.29.93,2,1.14-.53-1.09-2.34Z"/>
  </g>
  <circle cx="2.05" cy="25" r=".98"/>
  <circle cx="47.95" cy="25" r=".98"/>
</svg>