<?xml version="1.0" encoding="UTF-8"?>
<svg xmlns="http://www.w3.org/2000/svg" viewBox="0 0 50 50" fill="currentColor">
  <path d="m4.69,32.47c-.88-2.38-1.33-4.9-1.33-7.47s.44-5.05,1.31-7.4l1.04.38c-.82,2.23-1.24,4.59-1.24,7.02s.42,4.83,1.26,7.08l-1.04.39Z"/>
  <path d="m45.33,32.4l-1.04-.38c.82-2.23,1.24-4.59,1.24-7.02s-.41-4.76-1.22-6.95l1.04-.38c.85,2.32,1.29,4.78,1.29,7.34s-.44,5.05-1.31,7.4Z"/>
  <g>
    <g>
      <path d="m11.1,4.05l2.81,7.98-1.04.97-7.77-3.37,1.14-1.07,5.97,2.62-2.17-6.16,1.05-.98Z"/>
      <path d="m17.59,1.32l1.39-.39,2.09,7.46-1.39.39-2.09-7.46Z"/>
      <path d="m28.38,1.64l-2.53-.44.21-1.2,6.49,1.13-.21,1.2-2.53-.44-1.13,6.44-1.42-.25,1.13-6.44Z"/>
      <path d="m38.98,12.22l-2.89-2.58-1.76.83-1.11-.99,7.76-3.46,1.06.94-2.55,8.11-1.12-1,.62-1.85Zm.4-1.16l1.16-3.5-3.34,1.56,2.17,1.94Z"/>
    </g>
    <g>
      <path d="m38.93,45.92l-2.82-7.97,1.04-.97,7.77,3.36-1.14,1.07-5.97-2.61,2.18,6.15-1.05.98Z"/>
      <path d="m32.41,48.68l-1.39.39-2.09-7.47,1.39-.39,2.09,7.47Z"/>
      <path d="m21.69,48.36l2.53.43-.21,1.2-6.49-1.12.21-1.2,2.53.44,1.11-6.44,1.42.24-1.11,6.44Z"/>
      <path d="m11.06,37.82l2.9,2.57,1.76-.84,1.11.99-7.76,3.48-1.06-.94,2.53-8.12,1.13,1-.61,1.86Zm-.39,1.16l-1.16,3.5,3.33-1.57-2.18-1.93Z"/>
    </g>
  </g>
</svg>