<?xml version="1.0" encoding="UTF-8"?>
<svg xmlns="http://www.w3.org/2000/svg" viewBox="0 0 50 50" fill="currentColor">
  <g>
    <path d="m15.45,9.09l-2.71-4.04.22,4.69-.51.34-4.2-1.96,2.66,4-1.08.72-4.07-6.11.93-.62,5.12,2.43-.31-5.64.93-.62,4.08,6.1-1.07.71Z"/>
    <path d="m20.42,4.25l-.07-4.14,1.36-.02.07,4.09c.03,1.51.72,2.15,1.9,2.13,1.18-.02,1.84-.68,1.82-2.19l-.07-4.09,1.34-.02.07,4.14c.04,2.14-1.15,3.32-3.15,3.36-2.01.03-3.24-1.11-3.28-3.25Z"/>
    <path d="m30.78,7.66l.92-.7c.29.7.94,1.44,1.73,1.87,1,.55,1.62.42,1.88-.05.76-1.39-3.56-2.58-2.25-4.97.57-1.04,1.88-1.47,3.65-.5.77.42,1.47,1.07,1.83,1.75l-.89.72c-.39-.66-.94-1.17-1.5-1.48-.99-.55-1.61-.38-1.88.11-.75,1.37,3.55,2.57,2.25,4.93-.57,1.03-1.89,1.45-3.65.48-1-.55-1.83-1.41-2.11-2.17Z"/>
    <path d="m43.86,9.27l.86,1.06-5.69,4.64-.86-1.06,5.69-4.64Z"/>
    <path d="m44.84,17.17c2.11-.59,4.08.6,4.69,2.78.32,1.15.18,2.26-.4,3.12l-1.03-.63c.41-.67.51-1.38.3-2.12-.41-1.46-1.73-2.24-3.19-1.83s-2.19,1.75-1.78,3.21c.2.74.66,1.3,1.36,1.66l-.57,1.07c-.95-.44-1.64-1.32-1.96-2.48-.6-2.16.47-4.2,2.58-4.79Z"/>
  </g>
  <path d="m23.78,50C10.84,50,.31,39.47.31,26.53c0-4.61,1.34-9.07,3.87-12.9l.97.64c-2.41,3.64-3.68,7.88-3.68,12.26,0,12.3,10.01,22.31,22.31,22.31s21.44-9.11,22.24-20.73l1.16.08c-.84,12.23-11.12,21.81-23.4,21.81Z"/>
</svg>