<?xml version="1.0" encoding="UTF-8"?>
<svg id="Layer_1" data-name="Layer 1" xmlns="http://www.w3.org/2000/svg" viewBox="0 0 50 50">
  <defs>
    <style>
      .cls-1 {
        fill: #231f20;
      }
    </style>
  </defs>
  <g>
    <path class="cls-1" d="m11.48,9.09l-2.54,2.24.54,1.62-.97.86-2.2-7.09.93-.82,6.77,3.05-.99.87-1.55-.73Zm-.96-.46l-2.92-1.37,1.01,3.06,1.91-1.68Z"/>
    <path class="cls-1" d="m21.69,4.51c.31,1.12-.39,2.01-2.06,2.48l-3.24.9-1.81-6.52,3.06-.85c1.57-.43,2.59,0,2.87,1.03.19.67-.01,1.26-.44,1.67.76.03,1.39.45,1.62,1.3Zm-5.64-2.53l.5,1.8,1.71-.48c.84-.23,1.23-.66,1.07-1.26-.17-.61-.73-.77-1.56-.54l-1.71.48Zm4.38,2.75c-.18-.65-.75-.8-1.67-.55l-1.96.54.52,1.88,1.96-.54c.91-.25,1.33-.68,1.15-1.33Z"/>
    <path class="cls-1" d="m25.43,2.78c.4-1.96,2.21-3.11,4.27-2.69s3.28,2.17,2.89,4.14-2.21,3.11-4.27,2.69-3.28-2.17-2.89-4.14Zm5.91,1.2c.27-1.36-.52-2.54-1.86-2.81-1.34-.27-2.53.5-2.81,1.86-.27,1.36.52,2.54,1.86,2.81,1.34.27,2.53-.5,2.81-1.86Z"/>
    <path class="cls-1" d="m36.4,6.68l2.41-2.97.98.79-2.38,2.93c-.88,1.08-.77,1.94.08,2.63.85.69,1.71.61,2.58-.47l2.38-2.93.96.78-2.4,2.97c-1.24,1.53-2.78,1.67-4.22.5-1.44-1.17-1.63-2.7-.39-4.24Z"/>
    <path class="cls-1" d="m46.84,14.1l-1.02-2,.95-.48,2.61,5.12-.95.48-1.02-2-5.08,2.59-.57-1.12,5.08-2.59Z"/>
  </g>
  <path class="cls-1" d="m24.37,50C11.28,50,.62,39.35.62,26.25c0-3.34.68-6.56,2.01-9.57l.83.37c-1.28,2.89-1.93,5.99-1.93,9.2,0,12.59,10.25,22.84,22.84,22.84s22.84-10.25,22.84-22.84c0-.95-.06-1.9-.18-2.82l.9-.11c.12.96.18,1.95.18,2.94,0,13.09-10.65,23.75-23.75,23.75Z"/>
</svg>